# xmcd CD database file
#
# Track frame offsets:
#	150
#	13511
#	33367
#	49209
#	57419
#	67458
#	77199
#	90577
#	105290
#	127369
#	144311
#	166184
#
# Disc length: 2388 seconds
#
# Revision: 0
# Processed by: cddbd v1.5.2PL0 Copyright (c) Steve Scherf et al.
# Submitted via: CDex 1.51
#
DISCID=a409520c
DTITLE=Robert Farrell - Autoloader
DYEAR=2002
DGENRE=Blues
TTITLE0=Incidental Blues
TTITLE1=Hug Me Squeeze Me
TTITLE2=Church Of The Electric Soul
TTITLE3=Bullet Drive
TTITLE4=Wild Hands
TTITLE5=The Heavenly Thrillbilly
TTITLE6=Free Man
TTITLE7=When The Banks Of The Mississippi Run Dry
TTITLE8=The Rush
TTITLE9=Wreckin' Ball
TTITLE10=Say You'll Be Mine
TTITLE11=Joelee
EXTD=YEAR: 2002
EXTT0=
EXTT1=
EXTT2=
EXTT3=
EXTT4=
EXTT5=
EXTT6=
EXTT7=
EXTT8=
EXTT9=
EXTT10=
EXTT11=
PLAYORDER=
